<svg xmlns="http://www.w3.org/2000/svg" viewBox="0 0 465.34 342.29"><defs><style>.cls-1,.cls-23{isolation:isolate;}.cls-15,.cls-2,.cls-23,.cls-4,.cls-5,.cls-8{fill:#2988d7;}.cls-14,.cls-15,.cls-16,.cls-2,.cls-22,.cls-4,.cls-5,.cls-6{stroke:#205fa3;}.cls-10,.cls-14,.cls-15,.cls-16,.cls-18,.cls-2,.cls-22,.cls-33,.cls-4,.cls-5,.cls-6{stroke-miterlimit:10;}.cls-2{stroke-width:2.26px;}.cls-10,.cls-3{fill:#fff;}.cls-4{stroke-width:2.34px;}.cls-5{stroke-width:1.14px;}.cls-14,.cls-6,.cls-9{fill:#ebf3fe;}.cls-16,.cls-7{fill:#205fa3;}.cls-10{stroke:#d8d8d8;stroke-width:0.52px;}.cls-11{fill:#e4e9f7;}.cls-12{fill:#e2e2e2;}.cls-13{opacity:0.1;}.cls-14,.cls-15,.cls-16{stroke-width:2px;}.cls-17{fill:#b1cbe7;}.cls-18,.cls-33{fill:#3484c5;stroke:#eeeeef;}.cls-18{stroke-width:0.25px;}.cls-19{opacity:0.5;}.cls-20{fill:#4a6491;}.cls-21,.cls-23,.cls-35{opacity:0.3;}.cls-22{fill:#e8e8e8;stroke-width:2.89px;}.cls-24{fill:#ffe1bd;}.cls-25{fill:#3a3a3a;}.cls-26{fill:#393d63;}.cls-27{fill:#242944;}.cls-28{fill:#f4d4b3;}.cls-29{fill:#f9b253;}.cls-30{fill:#f29127;}.cls-31{fill:#ffd1ab;}.cls-32{fill:#282828;}.cls-33{stroke-width:0.42px;}.cls-34{fill:#1b3e77;}.cls-35{fill:#5d677d;mix-blend-mode:multiply;}.cls-36{fill:#32437a;}.cls-37{fill:#deddf0;}.cls-38{fill:#1c75bb;}.cls-39{fill:#fab724;}</style></defs><g class="cls-1"><g id="Calque_2" data-name="Calque 2"><g id="Calque_62" data-name="Calque 62"><polygon class="cls-2" points="39.3 278.33 39.3 282.33 15.2 282.33 15.2 148.41 19.2 148.41 19.2 278.33 39.3 278.33"/><rect class="cls-3" x="239.45" y="162.09" width="69.63" height="16.15" rx="6.9"/><rect class="cls-3" x="227.78" y="217.97" width="33.23" height="16.15" rx="7.45"/><rect class="cls-3" x="275.84" y="217.97" width="33.23" height="16.15" rx="7.45"/><path class="cls-4" d="M428.28,32.61a2.86,2.86,0,0,0-2.87-2.86H419.3a2.4,2.4,0,0,1-2.25-1.6c-.21-.57-.45-1.13-.7-1.69a2.41,2.41,0,0,1,.45-2.72l4.32-4.33a2.86,2.86,0,0,0,0-4.05l-7.05-7a2.86,2.86,0,0,0-4.05,0l-4.36,4.37a2.38,2.38,0,0,1-2.61.5c-.62-.27-1.29-.54-1.87-.76a2.37,2.37,0,0,1-1.5-2.21V4a2.87,2.87,0,0,0-2.87-2.86h-10A2.86,2.86,0,0,0,384,4v6.12a2.41,2.41,0,0,1-1.61,2.24c-.6.23-1.19.47-1.77.74a2.39,2.39,0,0,1-2.72-.44l-4.34-4.32a2.86,2.86,0,0,0-4.05,0l-7,7.07a2.86,2.86,0,0,0,0,4.05l2.3,2.29,2.07,2.06a2.07,2.07,0,0,1,.43.6,2.35,2.35,0,0,1,.08,2c-.07.17-.15.35-.22.53-.19.46-.37.92-.54,1.34a2.34,2.34,0,0,1-2.19,1.5l-6.19,0a2.85,2.85,0,0,0-2.85,2.87v10.1a2.86,2.86,0,0,0,2.87,2.73h6.12a2.4,2.4,0,0,1,2.25,1.59c.21.57.45,1.14.7,1.69a2.42,2.42,0,0,1-.44,2.72l-4.32,4.34a2.83,2.83,0,0,0-.84,1.93,2.86,2.86,0,0,0,.85,2.12l7.06,7a2.86,2.86,0,0,0,4.05,0L378,62.6a2.36,2.36,0,0,1,2.61-.5c.62.26,1.29.53,1.87.75a2.36,2.36,0,0,1,1.5,2.2v6.18a2.86,2.86,0,0,0,.48,1.58,2.81,2.81,0,0,0,2.39,1.28h10a2.86,2.86,0,0,0,2.86-2.87V65.09a2.38,2.38,0,0,1,1.48-2.18l.12-.06c.57-.22,1.14-.45,1.69-.71a2.83,2.83,0,0,1,.79-.22,2.37,2.37,0,0,1,1.93.67l.61.61,3.73,3.71a2.86,2.86,0,0,0,4.05,0l7-7.06a2.87,2.87,0,0,0,0-4.06l-4.37-4.35a2.37,2.37,0,0,1-.5-2.61c.63-1.49,1.29-3.27,1.32-3.37h7.82a2.86,2.86,0,0,0,2.86-2.87Zm-22.55,7.56a14.31,14.31,0,0,1-1.93,5,13.74,13.74,0,0,1-2.6,3.07,14.12,14.12,0,0,1-11.49,3.39,13.67,13.67,0,0,1-2.54-.63l-.06,0-.38-.14a14,14,0,0,1-8-8,13.26,13.26,0,0,1-.76-2.54,13.12,13.12,0,0,1-.27-2.66,12.94,12.94,0,0,1,.23-2.55A14.1,14.1,0,0,1,382.52,27a14.34,14.34,0,0,1,4.2-2.54,14,14,0,0,1,10.21,0A14.27,14.27,0,0,1,405.73,40.17Z"/><path class="cls-5" d="M464.75,49.63a1.41,1.41,0,0,0-1.4-1.41h-3a1.17,1.17,0,0,1-1.1-.79c-.11-.28-.22-.55-.35-.82a1.2,1.2,0,0,1,.22-1.34l2.12-2.11a1.41,1.41,0,0,0,0-2l-3.45-3.45a1.41,1.41,0,0,0-2,0l-2.13,2.14a1.17,1.17,0,0,1-1.28.24l-.91-.37a1.15,1.15,0,0,1-.74-1.08v-3a1.39,1.39,0,0,0-1.4-1.4h-4.88a1.4,1.4,0,0,0-1.4,1.4v3a1.18,1.18,0,0,1-.79,1.1c-.29.11-.58.23-.86.36a1.2,1.2,0,0,1-1.34-.21L438,37.76a1.4,1.4,0,0,0-2,0l-3.44,3.46a1.39,1.39,0,0,0,0,2l2.14,2.13a1.15,1.15,0,0,1,.25,1.28c-.13.3-.26.63-.37.91a1.15,1.15,0,0,1-1.08.74h-3a1.4,1.4,0,0,0-1.4,1.4v4.88a1.39,1.39,0,0,0,1.41,1.4h3a1.16,1.16,0,0,1,1.1.78c.11.28.22.55.35.82a1.2,1.2,0,0,1-.22,1.34L432.58,61a1.4,1.4,0,0,0,0,2l3.46,3.45a1.4,1.4,0,0,0,2,0l2.13-2.14a1.17,1.17,0,0,1,1.28-.24l.91.37a1.14,1.14,0,0,1,.74,1.07v3a1.41,1.41,0,0,0,1.41,1.4h4.88a1.4,1.4,0,0,0,1.4-1.4v-3a1.17,1.17,0,0,1,.78-1.1c.28-.1.55-.22.83-.34a1.17,1.17,0,0,1,1.33.22l2.12,2.11a1.39,1.39,0,0,0,2,0L461.27,63a1.42,1.42,0,0,0,0-2l-2.14-2.13a1.17,1.17,0,0,1-.25-1.28c.31-.73.63-1.6.65-1.65h3.83a1.4,1.4,0,0,0,1.4-1.4Zm-11,3.7a6.91,6.91,0,1,1-4.3-7.7A6.92,6.92,0,0,1,453.71,53.33Z"/><path class="cls-3" d="M252.38,287.75v-33.6H198.9v33.6c0,13.66-36.39,24.77-36.39,24.77H288.78S252.38,301.41,252.38,287.75Z"/><path class="cls-6" d="M252.38,286.9V254.15H198.9V286.9Z"/><path class="cls-7" d="M302.36,314l-.24-.07-2.15-.64-2.17-.65-8.31-2.49C276.14,306,255,296.33,255,287.75V251.48H196.3v36.27c0,5-7.23,10.4-15.91,14.84-2.6,1.33-5.34,2.57-8,3.69l-1.17.49c-3.3,1.32-6.52,2.46-9.39,3.34l-3.22,1-9,2.71-2.92.88-1.33.4H306.06Zm-125.52-4c1.92-.83,3.91-1.76,5.89-2.78,9.46-4.82,18.76-11.56,18.76-19.46V256.68h48.29v31.07c0,9.55,13.61,17.41,24.67,22.24Z"/><path class="cls-8" d="M393.28,24.46H58.06A10.62,10.62,0,0,0,47.54,35.22V248H403.8V35.22A10.66,10.66,0,0,0,393.28,24.46Z"/><path class="cls-7" d="M393.28,21.8H58.06A13.28,13.28,0,0,0,45,35.22v215.3H406.34V35.22A13.28,13.28,0,0,0,393.28,21.8Zm7.92,223.52H50.09V35.22a8.14,8.14,0,0,1,8-8.22H393.28a8.13,8.13,0,0,1,7.92,8.22Z"/><rect class="cls-9" x="64.59" y="40.29" width="322.53" height="191.73"/><path class="cls-3" d="M47.54,245.8v13.78a10.55,10.55,0,0,0,10.52,10.76H393.28a10.59,10.59,0,0,0,10.52-10.76V245.8Z"/><path class="cls-7" d="M298.13,248H173.79l.12.48H298.49ZM276,267.8l1.26,2.2.19.34h1.83l0,0,.06,0,3.83-2.54Zm-103.68,2.54h24V267.8h-24C172.3,268.59,172.31,269.44,172.32,270.34ZM45,243.27v16.31a13.73,13.73,0,0,0,.76,4.51A13.15,13.15,0,0,0,58.06,273H393.28a13.28,13.28,0,0,0,13.06-13.42V243.27ZM401.2,259.58a8.06,8.06,0,0,1-7.92,8.22H58.06a7.92,7.92,0,0,1-6.94-4.15,8.36,8.36,0,0,1-1-4.07V248.46H401.2Z"/><path class="cls-7" d="M123.32,229.79a.36.36,0,0,1,0-.43h-1.44l.23.24.47.49.76-.27ZM62.05,37.63V234.56H389.71V37.63ZM384.51,229.36H67.19V42.83H384.51Z"/><path class="cls-7" d="M429.07,318.7v1.93a3.62,3.62,0,0,1-3.62,3.63H25.84a3.62,3.62,0,0,1-3.62-3.63V318.7a3.63,3.63,0,0,1,3.62-3.63H425.45A3.63,3.63,0,0,1,429.07,318.7Z"/><rect class="cls-10" x="88.66" y="50.21" width="272.93" height="173.12" rx="0.95"/><rect class="cls-11" x="105.42" y="68.34" width="242.22" height="53.07" rx="0.48"/><rect class="cls-12" x="108.73" y="133.98" width="105.31" height="6.4"/><rect class="cls-12" x="108.73" y="145.23" width="96.71" height="3.2"/><rect class="cls-12" x="108.73" y="174.27" width="61.6" height="3.2"/><rect class="cls-12" x="108.73" y="183.56" width="96.71" height="3.2"/><rect class="cls-12" x="108.73" y="191.39" width="96.71" height="3.2"/><rect class="cls-12" x="108.73" y="199.23" width="96.71" height="3.2"/><rect class="cls-12" x="108.73" y="207.07" width="96.71" height="3.2"/><rect class="cls-12" x="257.57" y="147.51" width="77.73" height="3.2"/><rect class="cls-12" x="257.57" y="155.35" width="77.73" height="3.2"/><rect class="cls-12" x="257.57" y="163.19" width="77.73" height="3.2"/><rect class="cls-12" x="257.57" y="171.03" width="77.73" height="3.2"/><rect class="cls-12" x="257.57" y="184.57" width="77.73" height="3.2"/><rect class="cls-12" x="257.57" y="192.41" width="77.73" height="3.2"/><rect class="cls-12" x="257.57" y="200.25" width="77.73" height="3.2"/><rect class="cls-12" x="257.57" y="208.09" width="77.73" height="3.2"/><g class="cls-13"><path d="M118.13,129a7.7,7.7,0,0,1-15.34,1H81.86a37,37,0,0,1-9.3,22.42l15,15a7.7,7.7,0,1,1-4.08,6.79,7.73,7.73,0,0,1,.9-3.62l-15-15c-.71.63-1.44,1.23-2.2,1.79a31,31,0,0,1-2.6,1.81c-.82.53-1.67,1-2.54,1.47a36.33,36.33,0,0,1-12,3.9c-.84.13-1.69.22-2.55.29s-1.72.09-2.59.1V90.55c.87,0,1.73,0,2.59.1s1.71.16,2.55.28a36.8,36.8,0,0,1,12,3.9c.87.45,1.72.94,2.54,1.47a31,31,0,0,1,2.6,1.81c.76.56,1.49,1.17,2.2,1.8l15-15A7.7,7.7,0,1,1,91.19,89a7.62,7.62,0,0,1-3.62-.91l-15,15a37,37,0,0,1,9.29,22.42h21.73A7.7,7.7,0,0,1,118.13,129Z"/></g><circle class="cls-14" cx="38.21" cy="121.65" r="37.21" transform="translate(-71.72 57.04) rotate(-42.12)"/><circle class="cls-7" cx="38.21" cy="121.65" r="23.54" transform="translate(-54.26 33.86) rotate(-29.05)"/><path class="cls-15" d="M103.92,123.89V119.4H51.2A13.22,13.22,0,0,0,49,114L86.26,76.77l-3.18-3.18L45.82,110.86a13.23,13.23,0,1,0,0,21.57L83.08,169.7l3.18-3.18L49,129.26a13.22,13.22,0,0,0,2.21-5.37Z"/><path class="cls-16" d="M92.37,75.18a7.7,7.7,0,1,1-7.7-7.7A7.7,7.7,0,0,1,92.37,75.18Z"/><path class="cls-16" d="M111.62,122.92a7.7,7.7,0,1,1-7.7-7.69A7.7,7.7,0,0,1,111.62,122.92Z"/><path class="cls-16" d="M92.37,168.11a7.7,7.7,0,1,1-7.7-7.7A7.7,7.7,0,0,1,92.37,168.11Z"/><polygon class="cls-17" points="250.75 154.33 241.74 154.33 241.74 152.97 249.39 152.97 249.39 144.62 250.75 144.62 250.75 154.33"/><path class="cls-18" d="M269.72,200.67a3.11,3.11,0,1,0-3.11,3.11,3.11,3.11,0,0,0,3.11-3.11Z"/><polygon class="cls-17" points="267.29 197.54 265.93 197.54 265.93 188.06 254.52 188.06 254.52 186.71 267.29 186.71 267.29 197.54"/><polygon class="cls-17" points="263.48 212.26 256.99 212.26 256.99 194.44 251.58 194.44 251.58 193.09 258.34 193.09 258.34 210.91 263.48 210.91 263.48 212.26"/><polygon class="cls-17" points="250.75 219.01 249.39 219.01 249.39 203.23 244.24 203.23 244.24 201.88 250.75 201.88 250.75 219.01"/><path class="cls-18" d="M253.18,216.9a3.11,3.11,0,1,0-3.11,3.11A3.11,3.11,0,0,0,253.18,216.9Z"/><path class="cls-18" d="M267.44,211.58a3.11,3.11,0,1,0-3.11,3.11,3.11,3.11,0,0,0,3.11-3.11Z"/><path class="cls-18" d="M269.72,160a3.11,3.11,0,1,1-3.11-3.11,3.11,3.11,0,0,1,3.11,3.11Z"/><polygon class="cls-17" points="267.29 173.91 247.93 173.91 247.93 172.56 265.93 172.56 265.93 163.08 267.29 163.08 267.29 173.91"/><polygon class="cls-17" points="258.34 167.53 251.58 167.53 251.58 166.18 256.99 166.18 256.99 148.36 263.48 148.36 263.48 149.72 258.34 149.72 258.34 167.53"/><path class="cls-18" d="M267.44,149a3.11,3.11,0,1,1-3.11-3.11,3.11,3.11,0,0,1,3.11,3.11Z"/><rect class="cls-17" x="241.74" y="179.63" width="25.57" height="1.35"/><path class="cls-18" d="M272.06,180.31A3.11,3.11,0,1,1,269,177.2a3.11,3.11,0,0,1,3.11,3.11Z"/><path class="cls-7" d="M243,194.43a7.91,7.91,0,0,1-7.89-7.9.69.69,0,0,1,.76-.59.68.68,0,0,1,.59.59,6.54,6.54,0,0,0,13.07.17,7.92,7.92,0,0,1-1.37-4.45.68.68,0,0,1,1.35-.16.43.43,0,0,1,0,.16,6.56,6.56,0,0,0,6.54,6.54h.41a9.13,9.13,0,0,0,.68-16.87,6.2,6.2,0,0,1-9-5.54.69.69,0,0,1,.76-.59.68.68,0,0,1,.59.59,4.85,4.85,0,0,0,4.85,4.85,5.42,5.42,0,0,0,.57,0,7.53,7.53,0,0,0-2.53-10.33,7.61,7.61,0,0,0-3.89-1.09h-.39a7.88,7.88,0,0,1-6.5,3.42,6.54,6.54,0,0,0,0,13.08.69.69,0,0,1,.76.6.68.68,0,0,1-.59.75h-.17a7.73,7.73,0,0,1-3.87-1A5.12,5.12,0,0,1,232.7,181a.68.68,0,0,1,0-1.36h0a3.75,3.75,0,0,0,3.77-3.75h0v-.16a7.9,7.9,0,0,1-.8-11.13,8,8,0,0,1,2.8-2.06,7.86,7.86,0,0,1-4.7-7.21.68.68,0,0,1,1.35-.16.43.43,0,0,1,0,.16,6.54,6.54,0,0,0,12.91,1.4,9.14,9.14,0,0,0-18,.82H230v41.68a7.89,7.89,0,0,1,12.09,6.68.68.68,0,1,1-1.36,0,6.53,6.53,0,0,0-10.73-5v1.33a9.14,9.14,0,1,0,18.27.61c0-.2,0-.4,0-.61a9,9,0,0,0-.15-1.64h.46a7.5,7.5,0,0,0,7.51-7.5,7.59,7.59,0,0,0-.56-2.86,7.85,7.85,0,0,1-4.72-2A7.91,7.91,0,0,1,243,194.43Z"/><polygon class="cls-17" points="213.81 154.33 204.8 154.33 204.8 144.62 206.16 144.62 206.16 152.97 213.81 152.97 213.81 154.33"/><path class="cls-18" d="M185.83,200.67a3.11,3.11,0,1,1,3.11,3.11,3.11,3.11,0,0,1-3.11-3.11Z"/><polygon class="cls-17" points="189.62 197.54 188.26 197.54 188.26 186.71 201.03 186.71 201.03 188.06 189.62 188.06 189.62 197.54"/><polygon class="cls-17" points="198.56 212.26 192.07 212.26 192.07 210.91 197.21 210.91 197.21 193.09 203.97 193.09 203.97 194.44 198.56 194.44 198.56 212.26"/><polygon class="cls-17" points="206.16 219.01 204.8 219.01 204.8 201.88 211.31 201.88 211.31 203.23 206.16 203.23 206.16 219.01"/><path class="cls-18" d="M202.37,216.9a3.11,3.11,0,1,1,3.11,3.11A3.11,3.11,0,0,1,202.37,216.9Z"/><path class="cls-18" d="M188.11,211.58a3.11,3.11,0,1,1,3.11,3.11,3.11,3.11,0,0,1-3.11-3.11Z"/><path class="cls-18" d="M185.83,160a3.11,3.11,0,1,0,3.11-3.11,3.11,3.11,0,0,0-3.11,3.11Z"/><polygon class="cls-17" points="207.62 173.91 188.26 173.91 188.26 163.08 189.62 163.08 189.62 172.56 207.62 172.56 207.62 173.91"/><polygon class="cls-17" points="203.97 167.53 197.21 167.53 197.21 149.72 192.07 149.72 192.07 148.36 198.56 148.36 198.56 166.18 203.97 166.18 203.97 167.53"/><path class="cls-18" d="M188.11,149a3.11,3.11,0,1,0,3.11-3.11,3.11,3.11,0,0,0-3.11,3.11Z"/><rect class="cls-17" x="188.24" y="179.63" width="25.57" height="1.35"/><path class="cls-18" d="M183.49,180.31a3.11,3.11,0,1,0,3.11-3.11,3.11,3.11,0,0,0-3.11,3.11Z"/><path class="cls-7" d="M212.53,194.43a7.9,7.9,0,0,0,7.89-7.9.68.68,0,0,0-1.35,0,6.54,6.54,0,1,1-13.08.17,7.85,7.85,0,0,0,1.38-4.45.67.67,0,0,0-.59-.75.68.68,0,0,0-.76.59.43.43,0,0,0,0,.16,6.56,6.56,0,0,1-6.54,6.54h-.41a9.13,9.13,0,0,1-.68-16.87,6.2,6.2,0,0,0,9-5.54.68.68,0,0,0-1.35,0,4.85,4.85,0,0,1-4.85,4.85,5.42,5.42,0,0,1-.57,0A7.51,7.51,0,0,1,207,159.81h.39a7.88,7.88,0,0,0,6.5,3.42,6.54,6.54,0,0,1,0,13.08.69.69,0,0,0-.76.6.68.68,0,0,0,.6.75h.16a7.7,7.7,0,0,0,3.87-1,5.13,5.13,0,0,0,5,4.29.68.68,0,0,0,0-1.36,3.76,3.76,0,0,1-3.77-3.75h0v-.07a7.87,7.87,0,0,0,.82-11.11,8.06,8.06,0,0,0-2.82-2.08,7.87,7.87,0,0,0,4.7-7.21.67.67,0,0,0-.59-.75.68.68,0,0,0-.76.59.43.43,0,0,0,0,.16,6.54,6.54,0,0,1-12.91,1.31,9.14,9.14,0,0,1,18,.82h.06v41.68a7.89,7.89,0,0,0-12.09,6.68.68.68,0,1,0,1.36,0,6.53,6.53,0,0,1,10.73-5v1.33a9.14,9.14,0,1,1-18.28,0h0a9.1,9.1,0,0,1,.15-1.64H207a7.49,7.49,0,0,1-7-10.36,7.85,7.85,0,0,0,4.72-2A7.9,7.9,0,0,0,212.53,194.43Z"/><path class="cls-18" d="M253.18,143.73a3.11,3.11,0,1,1-3.11-3.12,3.11,3.11,0,0,1,3.11,3.12Z"/><path class="cls-18" d="M208.59,143.73a3.11,3.11,0,1,1-3.11-3.12,3.1,3.1,0,0,1,3.11,3.12Z"/><g class="cls-13"><path d="M321.12,270.34l-1.68-2.54-7.54-11.4.46-.3,1.22-.81-.81-1.22-2.36-3.55-.9-1.36-.46-.7-.31-.48,0,0-.06,0-.72.48-.44.29-2.68,1.77-3.16,2.09-1.59-2.09-1.57-2.06-.36-.48-1.66-2.18-.37-.48-1.56-2-3.31-4.35,1.2-1.07q1.76-1.6,3.41-3.29l.42-.44c.65-.69,1.29-1.38,1.92-2.09q1.17-1.31,2.28-2.67,2.37-2.93,4.43-6c.69-1.05,1.36-2.11,2-3.18l.34-.58a74.72,74.72,0,0,0,4.19-8.28c.47-1,.9-2.12,1.31-3.2.08-.2.16-.39.23-.59.51-1.33,1-2.69,1.4-4.05.32-1,.61-2,.88-3,0-.06,0-.13.05-.19.41-1.53.78-3.08,1.09-4.64.22-1.06.42-2.13.59-3.2.25-1.54.45-3.09.6-4.64.05-.4.09-.81.12-1.21.06-.66.11-1.32.14-2,.11-1.69.15-3.39.14-5.09s-.07-3.5-.2-5.25c-.07-1.06-.17-2.13-.3-3.2-.16-1.55-.39-3.1-.66-4.64-.19-1.07-.39-2.14-.63-3.2s-.51-2.25-.81-3.37c-.11-.42-.22-.85-.35-1.27l-.09-.32c-.28-1-.58-1.93-.9-2.88q-.76-2.34-1.69-4.64c-.2-.51-.41-1-.62-1.51s-.49-1.13-.75-1.69c-.87-1.92-1.84-3.82-2.88-5.69q-1.09-2-2.33-3.92l0,0q-.37-.6-.78-1.2a78,78,0,0,0-13.19-15.25q-2.24-2-4.6-3.81c-.77-.59-1.54-1.15-2.32-1.7A77.92,77.92,0,0,0,265,105.78c-.5-.18-1-.34-1.51-.5a78.61,78.61,0,0,0-39.65-2.17,73.09,73.09,0,0,0-8.28,2.17,76.86,76.86,0,0,0-8.44,3.26c-.58.26-1.16.53-1.73.81l-1.73.87a77.06,77.06,0,0,0-7.39,4.34l-.09.06c-.63.42-1.26.85-1.87,1.28q-1.83,1.29-3.56,2.66t-3.38,2.85c-.61.53-1.2,1.08-1.79,1.63-1.43,1.36-2.8,2.75-4.11,4.19a79.8,79.8,0,0,0-5.06,6.18L176,134l-.26.36c-.83,1.15-1.62,2.33-2.38,3.52-.4.63-.79,1.27-1.17,1.9l-.36.62c-.39.66-.76,1.33-1.12,2-.24.42-.46.85-.68,1.28s-.54,1-.8,1.58c-.38.77-.75,1.54-1.1,2.31-.13.29-.27.59-.39.89l-.33.77c-.59,1.38-1.14,2.79-1.65,4.2h0c-.42,1.19-.82,2.4-1.19,3.6-.29.94-.55,1.87-.8,2.81s-.43,1.69-.63,2.54a.44.44,0,0,0,0,.1c-.16.72-.32,1.43-.46,2.15a80.37,80.37,0,0,0-1.31,9.66.34.34,0,0,0,0,.1c0,.1,0,.22,0,.33l-.06,1c0,.58-.06,1.16-.07,1.74-.05,1.2-.06,2.41,0,3.61,0,.36,0,.71,0,1.07s0,.78,0,1.17c0,.08,0,.16,0,.24,0,.36,0,.71.07,1.07s0,.85.08,1.28c0,.28,0,.56.07.85.12,1.54.3,3.09.54,4.63.15,1.07.33,2.14.53,3.2a3.4,3.4,0,0,0,.07.34,1.1,1.1,0,0,0,.06.26c.17.95.38,1.89.6,2.82.09.41.19.82.3,1.22.05.22.11.44.17.66l.33,1.21s0,.05,0,.07c.09.33.19.66.29,1a.29.29,0,0,0,0,.09l.06.18c.4,1.34.84,2.68,1.31,4l.24.64c.39,1.07.81,2.14,1.27,3.2a76.91,76.91,0,0,0,4.66,9.3c.32.54.64,1.08,1,1.62s.84,1.34,1.28,2l.09.13c1.39,2.09,2.87,4.11,4.43,6,.73.91,1.49,1.8,2.26,2.67s1.55,1.71,2.35,2.53a77.7,77.7,0,0,0,10,8.71c.57.41,1.14.82,1.72,1.22l1.23.83.74.48c1.18.76,2.37,1.49,3.58,2.18l.85.48q2,1.09,4,2.06c.68.33,1.37.65,2.06,1q3.35,1.5,6.81,2.67l.75.25,1.72.55,1.71.5c1.69.47,3.38.88,5.1,1.23l1.23.24a75.54,75.54,0,0,0,8.74,1.19,78.09,78.09,0,0,0,10.71.09c1.83-.11,3.67-.28,5.5-.52.87-.11,1.74-.24,2.6-.39s1.74-.3,2.6-.48a76.83,76.83,0,0,0,12.65-3.66c2-.78,4.07-1.66,6.06-2.63,1.11-.54,2.22-1.1,3.31-1.7l1,1.7,3.36,5.86,1.58,2.78.37.64.36.64,1.69,3-6.18,4.09-.45.3-.77.51.58.87.23.35.54.81,0,0,.4.61.39.59,0,0L281,273h41.84ZM200.63,234.2l-.43-.23-.72-.39-.06,0-.3-.17-.05,0-.35-.21-.1,0-.66-.39-.42-.25-.68-.42-.1-.06-.78-.5-.11-.07-1-.66-.42-.29c-.18-.13-.37-.25-.55-.39l-.15-.1-.7-.51-.12-.09-.78-.59-.34-.26-.34-.27-.22-.17-.22-.19c-.12-.09-.24-.18-.35-.28l0,0-.48-.4-.12-.1-.49-.42-.5-.44c-.14-.11-.27-.24-.41-.36l-.23-.21c-.29-.26-.58-.52-.86-.8a3.45,3.45,0,0,1-.28-.26l-.95-.93-.09-.09-.23-.24h0c-.33-.34-.67-.69-1-1.05l0,0c-.4-.43-.79-.86-1.18-1.3s-.79-.91-1.18-1.38l-.29-.35-.22-.27-.16-.2-.15-.19a.67.67,0,0,1-.11-.14l-.14-.18c-.23-.29-.45-.57-.66-.86a1.09,1.09,0,0,1-.13-.17c-.25-.32-.49-.65-.73-1l-.17-.24-.26-.36c-.29-.42-.58-.84-.86-1.27s-.61-.94-.9-1.41c-.43-.68-.84-1.36-1.23-2.05l-.35-.62-.36-.67a.75.75,0,0,1-.07-.12c-.28-.53-.56-1.06-.82-1.6-.13-.27-.27-.54-.39-.81h0c-.13-.27-.26-.54-.38-.82-.27-.6-.54-1.2-.79-1.8s-.48-1.16-.7-1.74c0-.1-.07-.19-.11-.28l-.36-1-.17-.48a.45.45,0,0,1,0-.11c-.2-.54-.37-1.08-.54-1.62h0a2.29,2.29,0,0,0-.08-.28q-.25-.82-.48-1.65l-.12-.45c-.18-.65-.34-1.31-.49-2,0-.1,0-.2-.07-.3-.12-.5-.22-1-.32-1.49,0-.14-.05-.27-.08-.41-.08-.43-.16-.86-.23-1.3,0-.23-.08-.45-.11-.68-.21-1.27-.37-2.55-.48-3.83,0,0,0-.08,0-.12a2.46,2.46,0,0,1,0-.28q-.14-1.46-.18-2.91h0c0-.16,0-.32,0-.48,0-.35,0-.69,0-1s0-.55,0-.83c0-.53,0-1.05,0-1.58s0-1.2.08-1.81c0-.11,0-.23,0-.35.06-1,.14-1.93.26-2.9,0,0,0-.1,0-.15s0-.1,0-.15,0,0,0-.06l0-.21c.05-.43.11-.86.17-1.29l.07-.47c.08-.48.15-1,.24-1.43l.17-.89c.18-.92.38-1.84.6-2.74l.48-1.84c.09-.31.17-.62.27-.92l.33-1.09q.44-1.37.93-2.7c.09-.25.18-.5.28-.75.17-.47.36-.93.55-1.39s.47-1.12.72-1.67.5-1.08.76-1.62.5-1,.77-1.52c.53-1,1.09-2,1.69-3l.19-.32c.4-.64.8-1.28,1.22-1.9.24-.38.5-.76.75-1.13l0,0c.12-.18.25-.37.39-.55s.44-.62.67-.93c.06-.07.11-.15.17-.23l.26-.33c.19-.27.4-.53.61-.8s.32-.41.49-.61l.24-.29c.23-.29.47-.58.71-.86.66-.78,1.35-1.54,2.05-2.29h0c.33-.36.67-.71,1-1.06l.54-.54c.35-.34.7-.68,1.06-1s.54-.51.81-.74c.56-.52,1.14-1,1.73-1.5.27-.23.53-.45.81-.67l1.12-.88h0q.51-.4,1-.78c.36-.28.73-.54,1.1-.79l0,0c.39-.28.78-.55,1.18-.81l.53-.34c.29-.19.57-.38.86-.55s.57-.36.85-.52l1.29-.75,1.3-.72,1-.53c.66-.33,1.32-.66,2-1l1.22-.55c.41-.18.82-.36,1.23-.52s.78-.32,1.17-.47l1.06-.4,1.45-.51c.68-.23,1.37-.44,2.05-.65l.36-.1c.44-.13.9-.26,1.35-.37s.94-.25,1.41-.36l.3-.07c.54-.13,1.08-.25,1.63-.35s1-.2,1.51-.29l1-.17c.41-.07.83-.13,1.24-.18.56-.08,1.13-.15,1.69-.21.73-.08,1.45-.15,2.18-.19.49,0,1-.07,1.46-.09l1.66,0q1.08,0,2.16,0,1.64,0,3.27.15h0l.94.21.71-.07h0a59.42,59.42,0,0,1,10.33-.14,59.46,59.46,0,0,1,37.59,25.49l.14.21c.69,1.05,1.34,2.12,1.95,3.2.88,1.52,1.67,3.07,2.39,4.64.49,1.06.94,2.12,1.36,3.2s.88,2.35,1.26,3.54c.12.36.23.73.34,1.1.32,1.06.61,2.13.87,3.2.36,1.54.67,3.09.91,4.64.16,1.07.3,2.13.41,3.2.13,1.33.22,2.67.26,4a60.78,60.78,0,0,1-.12,6.33c-.08,1.07-.18,2.14-.33,3.2-.19,1.56-.45,3.1-.77,4.64-.22,1.07-.47,2.14-.76,3.2q-.61,2.34-1.43,4.64c-.38,1.08-.79,2.15-1.24,3.2q-1,2.37-2.19,4.64c-.57,1.08-1.17,2.15-1.81,3.2a58.34,58.34,0,0,1-6.06,8.28c-1.13,1.3-2.33,2.56-3.59,3.76a58.72,58.72,0,0,1-7.38,6q-.52.38-1.05.72-1.56,1-3.15,1.95-2.42,1.4-4.9,2.53a59.44,59.44,0,0,1-11.11,3.84h0a59.19,59.19,0,0,1-18,1.44l-1-.22h0c-1.12.13-2.23.22-3.34.28l-1.3.06-.81,0q-2.8.06-5.58-.15s0,0,0,0l-1.38-.31-.27-.07c-.23,0-.45-.1-.67-.16l-.44-.11-.35-.1h0c-.24-.05-.47-.11-.7-.18l-.21-.06c-.48-.13-1-.28-1.44-.43l-.14,0-.31-.1-1.29-.42-.1,0-.56-.2h-.05a1.45,1.45,0,0,1-.22-.09h0l-.18-.07-.76-.29-.38-.14-.06,0-.15-.07c-.55-.21-1.09-.43-1.63-.67,0,0,0,0,0,0l-.06,0h0l-.1,0c-.56-.24-1.11-.49-1.66-.75s-1.21-.58-1.8-.88h0Z"/></g><rect class="cls-7" x="283.81" y="331.09" width="70.76" height="6.63" rx="3.31"/><g class="cls-19"><path class="cls-20" d="M261.53,231.19a59.54,59.54,0,0,1-45.19,8.66,59.73,59.73,0,0,0,16.5-118,59.73,59.73,0,0,1,28.69,109.38Z"/></g><g class="cls-21"><path class="cls-20" d="M253.59,230.08a59.53,59.53,0,0,1-37.25,9.77,59.73,59.73,0,0,1,16.5-118l.95.21a59.72,59.72,0,0,1,19.8,108.06Z"/></g><path class="cls-22" d="M169.54,190.71c-.21-1.27-.36-2.55-.48-3.83C169.17,188.16,169.33,189.44,169.54,190.71Zm-.64-6.09c0,.62.07,1.24.13,1.86q-.14-1.46-.18-2.91C168.86,183.92,168.88,184.27,168.9,184.62ZM334.31,315.07a14.14,14.14,0,0,0-2.69-7.13l-7.27-9.56-.86-1.12-2.94-3.86-1.25-1.64-.06-.09-.08-.09-1.64-2.17-1.65-2.16-3.33-4.38-1.31-1.73L305,273l-.5-.66-1.32-1.73-.21-.27-1.93-2.54L296,261.1v0l-.44-.56-.44-.59-.88-1.14-2.7-3.56-.44-.59-.44-.58-2.69-3.54-1.57-2.06L286,248l-1.66-2.18-.36-.48-1.56-2-2.21-2.9c.4-.35.8-.7,1.2-1.07q2.5-2.28,4.77-4.74c.14-.15.28-.29.41-.44.62-.69,1.23-1.38,1.82-2.09.75-.87,1.48-1.76,2.17-2.67q2.26-2.93,4.22-6c.79-1.23,1.53-2.49,2.23-3.76.3-.53.59-1.06.87-1.6q1.73-3.27,3.12-6.68c.32-.77.63-1.55.92-2.33.11-.29.22-.58.32-.87q.84-2.29,1.52-4.64c.16-.52.3-1,.44-1.56s.29-1.09.42-1.64c.39-1.53.72-3.08,1-4.64.19-1.06.37-2.13.51-3.2.22-1.46.38-2.93.51-4.4,0-.08,0-.16,0-.24.09-1.07.16-2.13.2-3.2s.07-2.42.06-3.63c0-1.5-.05-3-.15-4.49,0-.74-.09-1.48-.17-2.22-.09-1.07-.21-2.13-.34-3.2-.21-1.55-.47-3.1-.77-4.64-.2-1.07-.43-2.14-.69-3.2l-.15-.62c-.1-.44-.22-.87-.33-1.3s-.29-1.06-.44-1.58-.22-.76-.35-1.14c-.31-1.07-.66-2.14-1-3.2q-.82-2.34-1.81-4.64a.14.14,0,0,0,0-.06c-.45-1.05-.92-2.1-1.42-3.14q-1-2.14-2.2-4.24c-.74-1.32-1.52-2.62-2.33-3.92,0,0,0,0,0,0-.25-.41-.51-.81-.78-1.21a77.61,77.61,0,0,0-7.32-9.42,74.9,74.9,0,0,0-7.54-7.28c-1-.82-1.94-1.6-2.93-2.36-.77-.59-1.54-1.15-2.32-1.7A78.24,78.24,0,0,0,254,107.23c-.5-.18-1-.34-1.51-.5a78.92,78.92,0,0,0-28.63-3.62A78.44,78.44,0,0,0,196.13,110c-.58.26-1.16.53-1.73.82s-1.15.56-1.73.86a79.2,79.2,0,0,0-7.39,4.34l-.09.07c-.63.41-1.26.84-1.87,1.27q-1.83,1.29-3.56,2.67c-.57.46-1.14.92-1.7,1.39-1.19,1-2.35,2-3.47,3.08-1.43,1.36-2.8,2.75-4.11,4.2-1.55,1.71-3,3.47-4.39,5.29-.23.29-.45.59-.67.88l-.67.93c-.83,1.15-1.62,2.33-2.38,3.53-.22.35-.44.7-.65,1.06s-.35.56-.52.84c-.51.85-1,1.73-1.49,2.6L159,145.1l-.07.13c-.55,1.05-1.07,2.12-1.57,3.2l-.26.57q-.37.81-.72,1.65c-.6,1.38-1.14,2.79-1.65,4.21h0c-.42,1.2-.82,2.4-1.19,3.61-.29.93-.55,1.87-.8,2.8s-.43,1.69-.63,2.54a.52.52,0,0,0,0,.11c-.16.71-.32,1.42-.46,2.14a75.48,75.48,0,0,0-1.18,8.21c-.06.52-.1,1-.14,1.55,0,.11,0,.22,0,.33,0,.36,0,.73-.07,1.09a1.77,1.77,0,0,1,0,.23c0,.82-.07,1.64-.08,2.46,0,1.21,0,2.42,0,3.63v0c0,.4,0,.79,0,1.18l0,.57c0,.47,0,.94.08,1.41,0,.19,0,.39.05.59.09,1.35.23,2.69.4,4,.13,1.07.29,2.14.48,3.2.05.32.11.64.17,1s.11.6.17.89c.09.48.19,1,.3,1.45s.19.89.3,1.34c.24,1.07.52,2.14.82,3.2l0,.12q.36,1.3.78,2.61c.14.45.29.9.44,1.35.07.18.13.37.2.56s.18.54.28.81c.21.59.43,1.17.66,1.75.08.22.16.43.25.64.4,1,.83,2,1.29,3,.19.45.39.89.6,1.33.78,1.66,1.63,3.31,2.54,4.93q1,1.91,2.25,3.76.22.38.48.75c.11.19.24.38.36.57s.21.32.32.47q1.47,2.19,3.06,4.24c.17.23.34.45.52.67.53.68,1.07,1.34,1.63,2,.72.86,1.47,1.71,2.23,2.53l.43.47a77.84,77.84,0,0,0,9,8.24c.91.71,1.82,1.39,2.76,2l.68.48.21.15c1,.7,2.07,1.38,3.12,2,.26.17.52.32.78.48,1.19.72,2.4,1.41,3.62,2.06q2.33,1.24,4.74,2.33c1,.46,2,.89,3.07,1.3q2.31.93,4.68,1.71l1.71.54,1,.28.76.22c2.09.58,4.2,1.08,6.33,1.48a78,78,0,0,0,30.47-.18c1.84-.37,3.68-.81,5.5-1.32.87-.25,1.74-.51,2.6-.79s1.74-.57,2.6-.88a76.25,76.25,0,0,0,10.53-4.69l.47-.25.14.25,1.51,2.63,2.68,4.68,4,7,.36.63.37.64,1,1.67,1.26,2.2.19.34.5.88,0,0h0l.37.63.35.62v0l.26.46,1.29,2.25,4.38,7.66h0l1.07,1.88,1.4,2.45,1.24,2.16,1.24,2.17.1.18,1.51,2.64,1.08,1.89,1.19,2.09,4.3,7.51h0l1.07,1.87h0l3.52,6.18.64,1.11.6,1.06,4.29,7.51c.13.21.26.42.4.62a14.22,14.22,0,0,0,19.63,4l.12-.08a14,14,0,0,0,3.93-3.93A14.22,14.22,0,0,0,334.31,315.07ZM200.87,234.33l-.24-.13-.43-.23-.72-.39-.06,0-.3-.17-.4-.23-.1,0q-.33-.18-.66-.39l-.42-.25-.68-.42-.1-.06-.78-.5-.11-.07-1-.66-.42-.29c-.18-.13-.37-.25-.55-.39l-.15-.1-.7-.51-.12-.09-.78-.59-.34-.26-.34-.27-.22-.17-.57-.47,0,0-.48-.4-.12-.1-.49-.42c-.17-.14-.33-.28-.5-.44s-.27-.24-.41-.36l-.23-.21c-.29-.25-.58-.52-.86-.8a3.45,3.45,0,0,1-.28-.26l-.08-.07c-.3-.29-.59-.57-.87-.86l-.09-.09-.24-.24-.06-.06-.27-.28c-.23-.23-.45-.47-.67-.71l0,0-.31-.32,0,0c-.29-.31-.57-.62-.84-.94-.14-.15-.28-.3-.41-.46s-.52-.61-.77-.92h0l-.27-.33s0,0,0,0l-.22-.27-.16-.2-.15-.19a.67.67,0,0,1-.11-.14l-.14-.18a4.57,4.57,0,0,1-.29-.36c-.13-.16-.25-.33-.37-.5a1.09,1.09,0,0,1-.13-.17c-.25-.32-.49-.65-.73-1l-.17-.24-.26-.36c-.29-.42-.58-.84-.86-1.27s-.61-.93-.9-1.41c-.43-.68-.84-1.36-1.23-2.05l-.34-.62c-.13-.22-.25-.45-.37-.67a.75.75,0,0,1-.07-.12c-.28-.53-.56-1.06-.82-1.6-.13-.27-.27-.54-.39-.81s-.26-.55-.39-.82c-.27-.6-.54-1.2-.79-1.8s-.48-1.16-.7-1.74l-.1-.28c-.13-.33-.25-.66-.37-1l-.17-.48a.45.45,0,0,1,0-.11q-.28-.81-.54-1.62l-.09-.28q-.25-.82-.48-1.65l-.12-.45c-.18-.65-.34-1.3-.49-2,0-.1,0-.2-.06-.3h0c-.12-.5-.22-1-.32-1.49,0-.14-.05-.27-.08-.41-.08-.43-.16-.87-.23-1.3,0-.23-.08-.45-.11-.68-.21-1.27-.36-2.55-.48-3.83,0,0,0-.08,0-.12a2.46,2.46,0,0,1,0-.28q-.14-1.46-.18-2.91h0c0-.16,0-.32,0-.48,0-.35,0-.69,0-1s0-.55,0-.83c0-.53,0-1.05,0-1.58s0-1.21.08-1.81c0-.12,0-.24,0-.35,0-.49.07-1,.11-1.45v0c0-.48.1-.95.16-1.43,0,0,0-.1,0-.15a.77.77,0,0,1,0-.15v-.06l0-.21c.05-.43.11-.86.17-1.29l.07-.47c.07-.48.15-1,.24-1.43l.17-.89c.18-.92.38-1.84.6-2.74l.48-1.84c.09-.31.17-.62.27-.92l.33-1.09c.11-.36.23-.71.35-1.07s.22-.66.34-1,.15-.43.24-.64.18-.5.28-.75c.17-.47.36-.93.55-1.39s.47-1.12.72-1.67l0-.08c.23-.52.48-1,.73-1.54s.5-1,.77-1.52c.53-1,1.09-2,1.69-3l.19-.32c.39-.64.79-1.27,1.2-1.9.25-.38.51-.76.77-1.13l0,0c.12-.19.25-.37.38-.55h0l.66-.93c.06-.07.11-.15.17-.23l.25-.33h0c.19-.27.4-.53.61-.8s.32-.41.49-.61l.24-.29c.23-.29.47-.58.71-.86.66-.78,1.35-1.54,2.05-2.29h0c.34-.36.68-.71,1-1.06l.54-.54c.35-.34.7-.68,1.06-1s.54-.5.81-.74c.56-.52,1.14-1,1.73-1.5l.81-.67,1.12-.88h0q.51-.4,1-.78c.36-.27.73-.53,1.1-.79l0,0c.39-.28.78-.55,1.18-.81l.53-.34c.28-.19.57-.37.86-.55l.85-.52,1.29-.75,1.3-.72,1-.53c.66-.33,1.32-.66,2-1l1.22-.55c.41-.18.82-.36,1.23-.52l1.17-.47,1.06-.4,1.45-.51c.68-.23,1.37-.44,2.05-.65l.36-.1c.44-.13.9-.26,1.35-.37l1.41-.36.3-.07,1.63-.35c.5-.11,1-.2,1.51-.29l1-.17.83-.13.41,0c.56-.08,1.13-.15,1.69-.21.73-.08,1.45-.15,2.18-.19.48,0,1-.07,1.46-.09s1.11,0,1.66,0,1.27,0,1.91,0h.5l.82,0,1.13,0c.36,0,.72,0,1.07.08h0c.55,0,1.1.08,1.65.14h0c.52,0,1,.1,1.56.17l.09,0,.35,0c.44,0,.87.11,1.31.19h0c.54.08,1.09.17,1.64.28s1.1.21,1.64.33.93.2,1.39.32l.36.08q.75.18,1.5.39h0l1.07.31q.34.09.69.21c.41.12.8.25,1.21.39h0l.23.07,1.13.39.34.13.31.11c.29.1.58.21.86.33s.58.22.87.34l.82.35.33.13.27.13c.28.11.55.24.82.36l.93.43.17.08.44.22c.39.18.77.37,1.15.58a4,4,0,0,1,.46.24l.18.1c.17.08.33.17.49.26s.58.31.87.48c.51.29,1,.58,1.52.89l.36.22q.45.27.9.57l.06,0,.29.18.29.2c.62.4,1.24.82,1.84,1.26l.67.49.48.35c.16.11.31.23.47.36l.5.38.7.57c.26.2.51.41.76.62l.55.47c.27.23.54.46.8.7s.33.29.51.46.58.52.86.8c.15.13.29.27.44.42.31.29.62.59.92.91.1.1.21.2.3.31.31.31.61.62.9.94s.73.77,1.07,1.17c.2.22.4.44.59.67l0,0c.27.33.55.65.82,1l.37.45c.21.26.43.54.64.82h0l.43.55.08.11c.52.69,1,1.4,1.53,2.13.21.29.41.6.61.9.49.74,1,1.49,1.41,2.24l0,.06.73,1.25.5.91c.45.82.88,1.65,1.28,2.48.52,1.06,1,2.13,1.44,3.2h0c.37.9.72,1.8,1,2.71.1.27.19.54.28.82.05.13.1.27.14.41s.16.46.22.69h0c.06.18.12.36.17.54.13.41.25.82.37,1.24s.27.95.39,1.42c.4,1.54.74,3.09,1,4.64h0l0,.19c0,.19.07.37.09.56.11.65.21,1.31.29,2l.06.49.09.78q.12,1,.18,2.07c0,.35.05.7.07,1.06a.31.31,0,0,1,0,.1c.1,2.11.1,4.23,0,6.33-.06,1.07-.14,2.14-.26,3.2-.09.87-.21,1.73-.34,2.59-.1.69-.22,1.37-.35,2-.2,1.07-.43,2.14-.69,3.2,0,0,0,0,0,.07-.13.55-.28,1.1-.43,1.64-.19.69-.39,1.38-.61,2.06-.09.29-.18.58-.28.87s-.14.42-.22.63c-.17.53-.36,1.05-.56,1.57-.12.34-.25.67-.39,1s-.22.55-.33.83q-.8,1.93-1.74,3.81c-.54,1.09-1.11,2.15-1.72,3.2-.21.37-.42.73-.65,1.1h0c-.63,1-1.3,2.07-2,3.07-.35.51-.7,1-1.07,1.5l-.41.54q-.34.47-.72.93c-.3.38-.61.76-.92,1.13-1.07,1.29-2.21,2.55-3.41,3.76-.21.22-.43.44-.65.65-.45.44-.9.87-1.37,1.3s-.94.85-1.42,1.26-1,.83-1.46,1.23-1,.8-1.51,1.18l-.54.41c-.33.25-.67.49-1,.73-.52.38-1.06.74-1.6,1.1s-.87.57-1.31.84-1,.65-1.58,1l-1.39.79-1.47.78h0l-.08.05-.66.32c-.27.15-.55.28-.83.41l-1.19.55-.31.14q-1.51.67-3.06,1.26-1,.39-2,.72l-1.16.39h0l-.7.21-.93.27-.3.08-.27.08-.77.2-1,.26a0,0,0,0,1,0,0l-1.05.23q-.9.21-1.8.36l-1.05.19-.31,0-.28.05-.78.11c-.35.06-.7.1-1.06.15l-1.06.12-1.06.1-1,.09-1.31.08c-.59,0-1.19,0-1.78.06-1.43,0-2.87,0-4.3-.07-.5,0-1,0-1.49-.1h-.09c-.45,0-.91-.07-1.35-.13h-.14a.07.07,0,0,1-.06,0l-.22,0c-.43,0-.85-.09-1.27-.15s-1-.13-1.53-.22-1-.15-1.45-.24l-.19,0c-.46-.08-.92-.17-1.39-.28,0,0,0,0,0,0-.42-.08-.85-.18-1.27-.28l-.21,0c-.38-.08-.76-.18-1.14-.28a4.5,4.5,0,0,1-.49-.14h0c-.23-.05-.47-.11-.7-.18l-.21-.06c-.48-.13-1-.28-1.44-.43l-.14,0-.31-.1-1-.33-.26-.09-.1,0-.56-.2-.27-.1h0l-.18-.07-.09,0-.78-.29-.27-.11-.06,0-1.28-.52-.51-.22-.06,0h0l-.1,0c-.22-.08-.44-.18-.65-.28l-.29-.13a7.79,7.79,0,0,1-.72-.34l-.12-.05-.17-.08-.43-.2-.18-.09-.67-.34a1.27,1.27,0,0,1-.23-.12h0Z"/><path class="cls-8" d="M292.19,259.45h29.89a0,0,0,0,1,0,0V320.5A14.06,14.06,0,0,1,308,334.55h-1.78a14.06,14.06,0,0,1-14.06-14.06V259.45A0,0,0,0,1,292.19,259.45Z" transform="translate(-112.91 218.86) rotate(-33.5)"/><path class="cls-7" d="M298.31,308.13l-1.2-1.81-5.25-7.94-.85-1.26h0l-1.19-1.8-2.35-3.55-.12-.18-1.43-2.17-1.44-2.16-.75-1.14h0l-1.2-1.8L276,274.36v0l2-1.34.55-.36.17-.12,1.41-.94,1.88-1.24,3.84-2.54H283.2l-3.83,2.54-.06,0-1.34.88h0l-.25.16L275.35,273l-1.41.93h0l.4.6.41.62L300,313.25l2.15.64Zm38,6.94a15.36,15.36,0,0,0-2.52-7.52l-6.07-9.17-4.39-6.62-.12-.18-1.43-2.17-1.43-2.16L310.89,273l-1.76-2.66-1.68-2.54-6.58-9.94-.4-.61-.4-.61-.8-1.2-5.06,3.35-9.73,6.44-3.89,2.57-2.08,1.38-1.25.82-.51.34-4,2.66-.8.53.8,1.2.8,1.22,7.48,11.3,1.43,2.16,1.43,2.17.13.18,4.38,6.62,9.41,14.22,1.64,2.47,6.08,9.19.91,1.38a15.28,15.28,0,0,0,6.31,5.45,15.63,15.63,0,0,0,8.89,1.33,14.94,14.94,0,0,0,4.36-1.33,14,14,0,0,0,1.92-1.08l1.48-1a15.5,15.5,0,0,0,6.9-14Zm-33.39,0-.78-1.18-3.81-5.76-1.2-1.81-5.25-7.94-.85-1.26h0l-1.19-1.8-2.35-3.55-.12-.18-1.43-2.17-1.44-2.16-.75-1.14h0l-1.2-1.8L276,274.36v0l2-1.34.55-.36.17-.12,1.41-.94,1.88-1.24,3.84-2.54L296,261.08l2.49-1.64h0L304,267.8l1.06,1.6.62.94.57.86,1.19,1.8,4.91,7.41,1.19,1.8,3.33,5,1.44,2.16,1.33,2,.1.16.12.18,1,1.46,2.67,4,.74,1.12,7.13,10.77a12.61,12.61,0,0,1-.9,15.11,12.32,12.32,0,0,1-2.66,2.36l-1.48,1A12.63,12.63,0,0,1,309,324.26l-.15-.21-5.24-7.92Z"/><rect class="cls-3" x="267.02" y="259.57" width="35.44" height="7.36" transform="translate(-98 200.89) rotate(-33.5)"/><path class="cls-7" d="M301.75,255.52l-3.26-4.91-.06-.09-.75-1.13-1.22.81-.48.32-5.35,3.54-7.72,5.1-1.37.91-7.23,4.79-4.44,2.94L268.13,269l-1.22.81.39.58.42.64,1.34,2,1.92,2.9.8,1.21,1.22-.8.54-.36,1.21-.79,1.2-.8L278,273l.53-.35.17-.11,1.42-.94,1.9-1.26,3.84-2.54L296,261.1l2.48-1.65,1.21-.79,1.2-.8.47-.31,1.22-.81Zm-6.66,4.41-11.88,7.87h0l-3.83,2.54-.06,0-1.34.89-.25.16L275.36,273h0l-1.41.94-1.2.79-.55.36L270.81,273l-1.76-2.66-.11-.17,3.58-2.37,2.52-1.67,7.23-4.78,1.37-.91,7.87-5.21,5.76-3.81,3.26,4.91-.46.31-1.21.8Z"/><rect class="cls-7" x="280.31" y="276.41" width="28.94" height="2.17" transform="translate(-104.19 208.8) rotate(-33.5)"/><rect class="cls-7" x="287.6" y="287.42" width="28.94" height="2.17" transform="translate(-109.06 214.66) rotate(-33.5)"/><rect class="cls-7" x="294.89" y="298.43" width="28.94" height="2.17" transform="translate(-113.92 220.51) rotate(-33.5)"/><g class="cls-13"><path d="M181.05,322.06q-.28-.81-.6-1.62c-.66-1.79-1.36-3.6-2.11-5.37-.06-.14-.11-.27-.17-.4H167.36c.09.13.17.27.27.4,1.84,2.79,3.79,5.78,5.69,8.79h8.39C181.5,323.27,181.28,322.66,181.05,322.06Zm-37.2-7.39c0,.13,0,.26,0,.4.13,2.86.26,5.84.37,8.79h7.89c.47-2.92.86-5.9,1.06-8.79l0-.4ZM167.75,258a6.42,6.42,0,0,1,1.93.44s-.22-.78-.55-2c-.07-.28-.15-.58-.24-.89l-.64-2.51c-.21-.82-.43-1.68-.64-2.56,0-.13-.07-.27-.1-.4l-.39-1.66-.09-.4a.24.24,0,0,0,0-.08c0-.13-.06-.27-.08-.4-.14-.61-.27-1.21-.38-1.78,0-.14-.06-.27-.08-.4a.22.22,0,0,1,0-.08,2.83,2.83,0,0,1-.08-.4h0c-.12-.59-.22-1.14-.29-1.64l-.06-.4c-.06-.42-.11-.81-.13-1.14a41,41,0,0,1,.56-7.17l.06-.4q.15-1,.3-2.13l.06-.41c.07-.52.13-1.05.19-1.59,0-.22.06-.44.08-.67s0-.27,0-.4c.21-1.83.37-3.72.4-5.63,0-.27,0-.54,0-.81a21.51,21.51,0,0,0-.19-3c0-.13,0-.27,0-.4a21.26,21.26,0,0,0-1.37-5.08c-.12-.29-.24-.58-.37-.86a24.46,24.46,0,0,0-1.58-3c-.39-.63-.79-1.23-1.21-1.81s-.69-.94-1-1.39l0,0-.39-.5-.43-.53-.12-.15a2.66,2.66,0,0,1-.57-1.05h0a5.81,5.81,0,0,1-.22-1c0-.11,0-.21-.05-.32s0-.09,0-.14l0-.37c0-.17,0-.33,0-.48,0-.46,0-.84,0-1v0a1.16,1.16,0,0,0,0-.13,1.54,1.54,0,0,0,.46-.32,5.36,5.36,0,0,0,1-1.69c.07-.15.13-.31.19-.47a18.58,18.58,0,0,0,.94-3.58,1.87,1.87,0,0,0,0-.25c0-.11,0-.22.05-.34a22.64,22.64,0,0,0,.26-3.2,16.26,16.26,0,0,0-.2-2.83,11.29,11.29,0,0,0-.44-1.8,5.86,5.86,0,0,0-.35-.94,7.7,7.7,0,0,0-1.42-2.26,4.38,4.38,0,0,0-3.87-1.59l-.12-.14a5.89,5.89,0,0,0-6.35-1.9c-2.9.74-5.49,2.88-6.39,3.31l-.69.32-.46.2c-2.65,1.09-5.27,1.54-6.38,1.19a17.82,17.82,0,0,0,.23,1.81,8.38,8.38,0,0,0,2.14,4.63A5.84,5.84,0,0,0,143.1,193a2.63,2.63,0,0,0,.2,1.62,5.63,5.63,0,0,0,.47.9c.1.16.53.39.58.59a6.1,6.1,0,0,1,0,2v0c-.06.31-.13.69-.19,1.08a6.36,6.36,0,0,0-.11,2.27c.19.51,1.07.48,1.68.4.08.18.16.35.25.53a13.64,13.64,0,0,0,2.31,3.41c1.27.56,3.37.15,5.55-.68l.21-.08a8.81,8.81,0,0,1,.37,1.39l-.14,0-.61.21a1.83,1.83,0,0,0,0,.35c-.05.87,0,2.23,0,2.23a7.33,7.33,0,0,0-1,1,5.07,5.07,0,0,0-.35.46,39,39,0,0,0-4.14,8.44c0,.13-.1.26-.14.4-.23.62-.44,1.26-.65,1.9s-.38,1.23-.56,1.86c-.27.9-.51,1.82-.74,2.74l-.74.13c-1.58.28-3.76.7-6.27,1.25-1.93.43-4.07.94-6.29,1.51l-.11,0-1.38.37-.35.09-1,.3-1.1.31h0l0,.27c-.93,0-2.37-.13-3.22,0a2.31,2.31,0,0,0-1,.52c-.31.22-.65.51-1,.8l-.43.36-.06.05-.32.27a9.36,9.36,0,0,0-1.45,1.86c0,.09,0,.15,0,.18a.23.23,0,0,0,.14,0,1,1,0,0,0,.51-.22l.32-.24a.77.77,0,0,0,.47,0c.41-.12,1.07-.91,1.37-1.14l.38-.25.43-.27a2.33,2.33,0,0,1,1,0,.47.47,0,0,1-.2.57l-.06.05c-.3.18-1,.27-1,.45s0,.56,1,.38a5.37,5.37,0,0,0,2-.82h0a2.45,2.45,0,0,1,1.38-.44h0l0,.23,0,.16h.57c1.86,0,8,0,13.77-.1l1.11,0c-.08.49-.16,1-.25,1.47a.77.77,0,0,1,0,.15,3,3,0,0,1-.43,0l-1.95.05-.07,0H117.92l-.08-.22-.76-2.13-.15-.41-.82-2.26L116,229l-2-5.63-1.36-3.76-.14-.4-2.34-6.49a.16.16,0,0,0-.2-.09l-1.38.49a.16.16,0,0,0-.09.2l2.12,5.89.14.4,1.36,3.76,2,5.63.14.4.82,2.26.15.41.77,2.13.09.25a2.62,2.62,0,0,0-.34-.25c-.25-.16-.41-.17-.44,0a.4.4,0,0,0,0,.22,1.16,1.16,0,0,0,0,.18,4.89,4.89,0,0,0,.76,1.38,4.59,4.59,0,0,0,1.9,1.54,16.34,16.34,0,0,0,3,.84,2.66,2.66,0,0,0,1.19,0,11.48,11.48,0,0,1,2.17-.29l0,.76s7.64.83,12.93,1.58c2.17.31,4.32.5,6.29.59-.07.56-.13,1.12-.18,1.67l0,.27c0,.13,0,.27,0,.4l-.15,1.65,0,.4s0,.05,0,.08l0,.4c-.05.6-.1,1.2-.14,1.78,0,.13,0,.27,0,.4a.22.22,0,0,0,0,.08l0,.4c0,.56-.08,1.12-.11,1.66,0,.14,0,.27,0,.4-.36,5.85-.39,10-.61,10.45,0,0,.64.68,2.94.81,0,.46.07.93.11,1.43v0c-.06.52-.17,2-.32,4.17l0,.4c-.05.66-.1,1.38-.16,2.14l0,.4c0,.72-.1,1.48-.15,2.26h22.31c0-.84,0-1.6,0-2.26v-.4c0-.25,0-.48,0-.69h0s0-.15,0-.32.11-.68.19-1.12c0-.13.05-.27.07-.4.06-.38.12-.76.19-1.09s.09-.46.13-.72.07-.38.1-.58.08-.54.12-.82h0c0-.22.06-.46.08-.69a19.86,19.86,0,0,0-.1-5.47Zm-20.68-25.45v0h0Z"/></g><g class="cls-19"><path class="cls-23" d="M129.81,340.32c0,1.08,16.43,2,36.68,2s36.68-.89,36.68-2-16.42-2-36.68-2S129.81,339.23,129.81,340.32Z"/></g><path class="cls-24" d="M150.57,330.06a51.83,51.83,0,0,0,.07,6.38c.22.93,3.12,1,3.48.53s.8-6.52.8-6.52Z"/><path class="cls-25" d="M154.92,337.81a21,21,0,0,1-.27,2.63h-3.52l-.17-.59a5.51,5.51,0,0,1-2,.59h-3c-2.17,0-3.4-.28-3.46-.66-.23-1.6,2.36-1.52,3-1.52,1.94,0,4-.91,4.5-1.9.33-.71.18-.89.58-.76a1,1,0,0,1,.6.52,1.78,1.78,0,0,0,1.84,1,2.12,2.12,0,0,0,1.18-.57A1.28,1.28,0,0,1,154.92,337.81Z"/><path class="cls-24" d="M187.11,330.7s1,2.59,1.38,3.45,3.28-.2,3.42-.79-2.17-5-2.17-5Z"/><path class="cls-25" d="M193,333.84c.37.93.92,2.73.92,2.73l-2.66,1.58-.53-.39a5.08,5.08,0,0,1-1.4,1.46,11.44,11.44,0,0,1-2.63,1.1c-2.44.55-4.32.28-4.51-.05-.8-1.4,2.42-2.17,3.05-2.42a4.37,4.37,0,0,0,2.69-3.55c0-.78-.16-.9.26-.92,0,0,.82-.14,1.31,1.09,0,0,1.92-.35,2.4-1.55A1.27,1.27,0,0,1,193,333.84Z"/><path class="cls-26" d="M172.25,263.87s.28-1.78.5-2.94c.72-3.69,1.84-11.08-4.19-16.91,0,0-7.11,3.18-12.8,3.56-4.48.31-5.51,0-5.51,0s-.29,6,1.52,21.21Z"/><path class="cls-26" d="M191.31,329.54a24.66,24.66,0,0,1-4.58,2.22l-.42-.74c-.29-.54-.6-1.1-.92-1.67h0a.28.28,0,0,0,0-.09c-1-1.78-2.12-3.65-3.29-5.59h0l0,0c-6.32-10.36-14.38-22-17.25-26.63,0,0,0,0,0-.05a7.56,7.56,0,0,1-.56-1.09c0-.07-.06-.14-.08-.2a2.82,2.82,0,0,1-.18-.58c0-.11-.05-.23-.07-.35a.35.35,0,0,1,0-.06,2.4,2.4,0,0,1,.58-2.06,2.88,2.88,0,0,1,.36-.33c1.55-1.11,4.65-.86,7.21.95l.4.29.2.15a24.68,24.68,0,0,1,6.15,6.17C184.56,308.64,188,322,191.31,329.54Z"/><path class="cls-26" d="M172.6,294.55c.1,4.86-1.69,6-3.65,5.48a5.75,5.75,0,0,1-1-.37,8.93,8.93,0,0,1-3.3-3s0,0,0-.06a6,6,0,0,1-.44-.81c0-.07-.06-.14-.08-.2a2.82,2.82,0,0,1-.18-.58c0-.11-.05-.23-.07-.35a.35.35,0,0,1,0-.06c-.48-2.42-1.62-6.57-3-11.42-.79-2.74-1.64-5.69-2.49-8.67-2.6-8.95-5-17.73-5-20.3.25-9.24,11-1.89,16.11,1.73,2.16,1.53,2.72,4.17,2.75,6.6s.25,24.8.34,31.06a3.54,3.54,0,0,1,0,.45C172.6,294.27,172.6,294.41,172.6,294.55Z"/><path class="cls-26" d="M172.51,288.18s.22,4.78,5.12,10.18c0,0-7.08-2.14-7.46-2.55a25.1,25.1,0,0,1-2.14-5.44C168.09,289.85,172.51,288.18,172.51,288.18Z"/><path class="cls-27" d="M185.33,329.25c-1-1.78-2.12-3.65-3.29-5.59h0l0,0c-6.32-10.36-14.38-22-17.25-26.63,0,0,0,0,0-.05a7.56,7.56,0,0,1-.56-1.09c0-.07-.06-.14-.08-.2a2.82,2.82,0,0,1-.18-.58c0-.11-.05-.23-.07-.35a.35.35,0,0,1,0-.06c-.48-2.42-1.62-6.57-3-11.42l8.08-21.68h3s-3.32,10-4.68,14.53-1.72,11.56-1.84,14.14c-.26,5.68,6.7,15.3,8.69,18.8C176.18,312.79,184.61,327.82,185.33,329.25Z"/><path class="cls-26" d="M155,334.25h-.42a24.26,24.26,0,0,1-4.65-.35v-.85c.24-13.09-1.22-34.49-1.49-41.25,0-.47,0-4.53,0-4.93-.13-5.82,5.7-.63,7.82,3.93a18,18,0,0,1,1.2,3.5c.37,1.53.38,3.22.76,4.95C160.45,309.46,155.91,325.82,155,334.25Z"/><path class="cls-26" d="M168.85,263.83c0,.13-9.64,24-11.52,29.18h0a3.15,3.15,0,0,1-2.29,1.59c-2.59.63-6.4-.42-6.61-5.56a13.25,13.25,0,0,1,.07-1.85c.44-4.16,1.93-27.15,2.17-29.37s.71-5.45,1.89-5.83C158.47,250.12,170.59,255.54,168.85,263.83Z"/><path class="cls-26" d="M158.83,288.9c-1.31,6.11-1.31,4.63-.76,9.19s-1.43-3.88-1.43-3.88l1.22-3.1Z"/><path class="cls-28" d="M132.06,226a5.94,5.94,0,0,0-1.45-.11,4.8,4.8,0,0,1-.51.32v.26H130c-.06,0-1,.61-1.06.68s-1.2,1.33-1.2,1.33.18.17.6.05,1.07-.92,1.37-1.14l.81-.53a1.58,1.58,0,0,1,1.39.23C132.44,227.63,132.06,226,132.06,226Z"/><path class="cls-24" d="M138.05,224s-2.35.76-3.08.89-2.76-.11-3.84,0c-.56.06-1.7,1.12-2.79,2-.88,1-1.67,1.9-1.43,2.05.49.3,1.73-1.26,2.74-2a1.57,1.57,0,0,1,1.77-.28c.35.24.19.6-.1.79s-1,.27-1,.46,0,.56,1,.37a5.1,5.1,0,0,0,2-.83,2.54,2.54,0,0,1,1.38-.43c.73-.08,4.33-.72,4.33-.72Z"/><path class="cls-29" d="M153.37,220.39l-.74,6.21-.08.62-.61,0-2.86.09c-7,.16-14.34.09-14.34.09l-.43-2.76a168.65,168.65,0,0,1,16.54-3.86Z"/><rect class="cls-7" x="117.88" y="206.74" width="1.77" height="23.98" rx="0.15" transform="translate(-67.01 53.09) rotate(-19.78)"/><rect class="cls-7" x="121.86" y="228.99" width="25.77" height="1.83" rx="0.16"/><path class="cls-30" d="M153.37,220.39l-.74,6.21c-.21.19-.43.42-.69.65l-2.86.09a55.76,55.76,0,0,1,1.77-6.53Z"/><path class="cls-29" d="M175.16,253.1c-3.15-1.29-7.87.13-16.76,2.31s-10.78.18-10.78.18c.32-.67.24-8.59,1.23-18.38.21-2.1.48-4.3.8-6.53,1.33-9.06,3.72-18.69,8.17-25.34,2.21-3.28,8.48-4.89,8.48-4.89,3.42,4.19,6.8,9.17,6.79,16.69s-2,14.87-1.71,19.21S175.16,253.1,175.16,253.1Z"/><path class="cls-30" d="M156.48,237.12a46,46,0,0,1-7.63.09c.21-2.1.48-4.3.8-6.53h.29a3.69,3.69,0,0,0,3.49-2.76c.6-2.23,1.6-5.78,3.1-10.45,2.67-8.35,5.46-8.68,5.46-8.68s4.08-2.09,4.25,2.34S161.7,236.48,156.48,237.12Z"/><path class="cls-26" d="M168.35,265.09s3-1.1,4.76-6.29l-1.87-3.3-4,1.85a27.84,27.84,0,0,0-.53,3.77C166.87,261.29,168.35,265.09,168.35,265.09Z"/><path class="cls-24" d="M131.42,232.11l-.27-2.22a16.52,16.52,0,0,1-2.94.14c-.94-.11-2.07-.61-3.43-.87s-1.67.29-1.46.62,1.81.58,1.81.58.22.2-.62.2h-.87a3.67,3.67,0,0,1-1-.46l-.49-.5c-.9-.95-1.47-1.25-1.37-.61a4.53,4.53,0,0,0,.8,1.57,4.66,4.66,0,0,0,1.9,1.53,15.58,15.58,0,0,0,3,.85,2.81,2.81,0,0,0,1.19,0,11.37,11.37,0,0,1,2.59-.31l1.23,0C133.18,232.77,132.29,232.4,131.42,232.11Z"/><path class="cls-29" d="M161.53,207.07s-2.78.33-5.46,8.68c-1.49,4.67-2.49,8.23-3.08,10.45a3.74,3.74,0,0,1-3.5,2.77l-19.55.51-.13,3.9s7.64.82,12.93,1.58a57.07,57.07,0,0,0,13.29.45c5.22-.64,10.34-23.57,10.09-25.91C165.73,205.84,161.53,207.07,161.53,207.07Z"/><path class="cls-31" d="M148.64,187.38s-.5,1,.61,2.73c.1.16.53.39.58.58a6.21,6.21,0,0,1,0,2.07,18.59,18.59,0,0,0,3.94,7.69c1.89.84,5.59-.47,8.71-2.12.66-.06,4.35-1.87,3.82-7.1s-4.63-10-4.91-10.15-8.36,1.37-8.68,1.44S148.64,187.38,148.64,187.38Z"/><path class="cls-32" d="M160.27,189.38a3.18,3.18,0,0,1-2.22-3.26c-.09-2.78-.45-2.87-2.16-1.32s-13.19,7.63-14.17-5.24c1.27.41,4.51-.25,7.53-1.7,1.57-.76,8.36-6.76,12.85-1.27,2.21-.39,5.27,1.58,6.09,6.58s-1,11.94-2.77,12.69c-1.15.48-1.69-.69-2.12-3.06-.18-1.23,3-3.63-.34-6.72A2.17,2.17,0,0,0,160.27,189.38Z"/><path class="cls-31" d="M165.42,195.86s-.32,3.6,1,4.73c-2.06,2.48-6.68,2.85-6.68,2.85s1.06-1.69-1.3-6.08S165.42,195.86,165.42,195.86Z"/><path class="cls-29" d="M159.13,203.92a19.16,19.16,0,0,1,0-2.58,67.36,67.36,0,0,1,6.59-1.94,3.55,3.55,0,0,1,1.13,1.74A35.09,35.09,0,0,1,159.13,203.92Z"/><path class="cls-31" d="M150,192s-.75,3.31-.46,4.11,2.27.28,2.27.28Z"/><g class="cls-13"><path d="M98.92,242.58v8a1,1,0,0,1-1,1H46.27a1,1,0,0,1-1-1v-8a1,1,0,0,1,1-1h.28v-1H97.62v1h.27A1,1,0,0,1,98.92,242.58Z"/><path d="M98.91,265v8H58.06a13.15,13.15,0,0,1-12.35-8.91,1,1,0,0,1,.55-.16h.28v-.28H97.61v.28h.27A1,1,0,0,1,98.91,265Z"/><path d="M98.92,253.4v8a1,1,0,0,1-1,1H46.27a1,1,0,0,1-1-1v-8a1,1,0,0,1,1-1h.28v-.28H97.62v.28h.27A1,1,0,0,1,98.92,253.4Z"/><path d="M97.62,229v1h.27a1,1,0,0,1,1,1v8a1,1,0,0,1-1,1H46.27a1,1,0,0,1-1-1v-8a1,1,0,0,1,1-1h.28v-1h-.28a1,1,0,0,1-1-1v-8a1,1,0,0,1,1-1H97.89a1,1,0,0,1,1,1v8a1,1,0,0,1-1,1Z"/></g><path class="cls-33" d="M87,314.57H37.39a1.71,1.71,0,0,1-1.7-1.71V267.7h53v45.16A1.71,1.71,0,0,1,87,314.57Z"/><rect class="cls-34" x="38.54" y="302.54" width="47.33" height="1.94" rx="0.47"/><rect class="cls-34" x="38.54" y="296.27" width="47.33" height="1.94" rx="0.47"/><rect class="cls-34" x="38.54" y="308.81" width="47.33" height="1.94" rx="0.47"/><rect class="cls-33" x="35.37" y="214.39" width="53.68" height="10.07" rx="1.03"/><rect class="cls-35" x="36.67" y="224.46" width="51.07" height="1.45"/><rect class="cls-36" x="36.67" y="224.46" width="51.07" height="0.51"/><rect class="cls-34" x="41.99" y="215.18" width="40.43" height="7.01" rx="1.06"/><rect class="cls-37" x="56.79" y="215.7" width="10.83" height="4.54" rx="0.42"/><rect class="cls-38" x="56.81" y="220.95" width="1.22" height="0.8"/><rect class="cls-38" x="63.19" y="220.95" width="1.22" height="0.8"/><rect class="cls-38" x="60" y="220.95" width="1.22" height="0.8"/><rect class="cls-38" x="66.38" y="220.95" width="1.22" height="0.8"/><rect class="cls-33" x="35.37" y="225.47" width="53.68" height="10.07" rx="1.03"/><rect class="cls-35" x="36.67" y="236.02" width="51.07" height="1.45"/><rect class="cls-36" x="36.67" y="236.02" width="51.07" height="0.51"/><rect class="cls-34" x="41.99" y="226.74" width="40.43" height="7.01" rx="1.06"/><rect class="cls-39" x="56.79" y="227.25" width="10.83" height="4.54" rx="0.42"/><rect class="cls-38" x="56.81" y="232.51" width="1.22" height="0.8"/><rect class="cls-39" x="63.19" y="232.51" width="1.22" height="0.8"/><rect class="cls-38" x="60" y="232.51" width="1.22" height="0.8"/><rect class="cls-38" x="66.38" y="232.51" width="1.22" height="0.8"/><rect class="cls-33" x="35.37" y="237.03" width="53.68" height="10.07" rx="1.03"/><rect class="cls-35" x="36.67" y="247.57" width="51.07" height="1.45"/><rect class="cls-36" x="36.67" y="247.57" width="51.07" height="0.51"/><rect class="cls-34" x="41.99" y="238.3" width="40.43" height="7.01" rx="1.06"/><rect class="cls-37" x="56.79" y="238.81" width="10.83" height="4.54" rx="0.42"/><rect class="cls-38" x="56.81" y="244.07" width="1.22" height="0.8"/><rect class="cls-38" x="63.19" y="244.07" width="1.22" height="0.8"/><rect class="cls-38" x="60" y="244.07" width="1.22" height="0.8"/><rect class="cls-38" x="66.38" y="244.07" width="1.22" height="0.8"/><rect class="cls-33" x="35.37" y="247.85" width="53.68" height="10.07" rx="1.03"/><rect class="cls-35" x="36.67" y="259.13" width="51.07" height="1.45"/><rect class="cls-36" x="36.67" y="259.13" width="51.07" height="0.51"/><rect class="cls-34" x="41.99" y="249.86" width="40.43" height="7.01" rx="1.06"/><rect class="cls-37" x="56.79" y="250.37" width="10.83" height="4.54" rx="0.42"/><rect class="cls-38" x="56.81" y="255.63" width="1.22" height="0.8"/><rect class="cls-38" x="63.19" y="255.63" width="1.22" height="0.8"/><rect class="cls-38" x="60" y="255.63" width="1.22" height="0.8"/><rect class="cls-38" x="66.38" y="255.63" width="1.22" height="0.8"/><rect class="cls-36" x="36.67" y="270.69" width="51.07" height="0.51"/><rect class="cls-33" x="35.37" y="259.41" width="53.68" height="10.07" rx="1.03"/><rect class="cls-34" x="41.99" y="261.42" width="40.43" height="7.01" rx="1.06"/><rect class="cls-37" x="56.79" y="261.93" width="10.83" height="4.54" rx="0.42"/><rect class="cls-38" x="56.81" y="267.19" width="1.22" height="0.8"/><rect class="cls-38" x="63.19" y="267.19" width="1.22" height="0.8"/><rect class="cls-38" x="60" y="267.19" width="1.22" height="0.8"/><rect class="cls-38" x="66.38" y="267.19" width="1.22" height="0.8"/><rect class="cls-3" x="52.34" y="279.1" width="19.73" height="3.82" rx="0.93"/><rect class="cls-36" x="54.24" y="280.21" width="15.85" height="1.47" rx="0.31"/><rect class="cls-3" x="52.34" y="286.42" width="19.73" height="3.82" rx="0.93"/><rect class="cls-36" x="54.24" y="287.53" width="15.85" height="1.47" rx="0.31"/></g></g></g></svg>